# xmcd CD database file
#
# Track frame offsets:
#	150
#	11329
#	21734
#	37030
#	50128
#	63680
#	74542
#	89956
#	101755
#	117995
#	133340
#	147216
#	160217
#
# Disc length: 2365 seconds
#
# Revision: 0
# Processed by: cddbd v1.5.2PL0 Copyright (c) Steve Scherf et al.
# Submitted via: CDex 1.70beta2
#
DISCID=d1093b0d
DTITLE=Ball and Chain - Cdn. - Honky Tonk Blues
DYEAR=1900
DGENRE=Country
TTITLE0=Honky Tonk Blues
TTITLE1=You're GonnaChange(or I'm Gonna Leave)
TTITLE2=You Win Again
TTITLE3=I Just Don't Like This Kind of Livin'
TTITLE4=Weary Blues
TTITLE5=Bicket's Got A Hole In It
TTITLE6=Take These Chains
TTITLE7=Baby We're Really In Love
TTITLE8=Lovesick Blies
TTITLE9=Fool About You
TTITLE10=Moanin' the Blues
TTITLE11=Settin' the Woods On Fire
TTITLE12=Bonous Track - ???
EXTD=
EXTT0=
EXTT1=
EXTT2=
EXTT3=
EXTT4=
EXTT5=
EXTT6=
EXTT7=
EXTT8=
EXTT9=
EXTT10=
EXTT11=
EXTT12=
PLAYORDER=
